<?xml version="1.0" encoding="UTF-8"?>
<svg width="167px" height="32px" viewBox="0 0 167 32" version="1.1" xmlns="http://www.w3.org/2000/svg" xmlns:xlink="http://www.w3.org/1999/xlink">
    <!-- Generator: Sketch 53.2 (72643) - https://sketchapp.com -->
    <title>balenaCam_blue_white</title>
    <desc>Created with Sketch.</desc>
    <g id="Page-1" stroke="none" stroke-width="1" fill="none" fill-rule="evenodd">
        <g id="Artboard" transform="translate(-75.000000, -23.000000)">
            <g id="balenaCam_blue_white" transform="translate(75.000000, 23.000000)">
                <path d="M128.600066,23.9616 C127.013939,23.9616 125.64196,23.6169177 124.484088,22.9275429 C123.326215,22.238168 122.434032,21.2477017 121.807512,19.9561143 C121.180992,18.6645269 120.867737,17.1392088 120.867737,15.3801143 C120.867737,13.6368675 121.180992,12.1194731 121.807512,10.8278857 C122.434032,9.5362983 123.326215,8.54583202 124.484088,7.85645714 C125.64196,7.16708227 127.013939,6.8224 128.600066,6.8224 C129.662771,6.8224 130.665981,6.9927602 131.609726,7.33348571 C132.553471,7.67421123 133.37428,8.16152064 134.072175,8.79542857 C134.325956,9.03314405 134.452844,9.31047461 134.452844,9.62742857 C134.452844,9.84929635 134.3894,10.0434277 134.26251,10.2098286 C134.135619,10.3762294 133.98494,10.4594286 133.810466,10.4594286 C133.620131,10.4594286 133.390146,10.3722675 133.120504,10.1979429 C132.31158,9.56403493 131.578007,9.12030603 130.919764,8.86674286 C130.261522,8.61317968 129.504158,8.4864 128.647649,8.4864 C126.807742,8.4864 125.392146,9.08464164 124.400816,10.2811429 C123.409487,11.4776441 122.91383,13.1772842 122.91383,15.3801143 C122.91383,17.598792 123.409487,19.3063559 124.400816,20.5028571 C125.392146,21.6993584 126.807742,22.2976 128.647649,22.2976 C129.488296,22.2976 130.241695,22.1708203 130.907868,21.9172571 C131.574042,21.663694 132.31158,21.2199651 133.120504,20.5860571 C133.390146,20.4117325 133.620131,20.3245714 133.810466,20.3245714 C133.98494,20.3245714 134.135619,20.4038087 134.26251,20.5622857 C134.3894,20.7207627 134.452844,20.918856 134.452844,21.1565714 C134.452844,21.4735254 134.325956,21.750856 134.072175,21.9885714 C133.37428,22.6224794 132.553471,23.1097888 131.609726,23.4505143 C130.665981,23.7912398 129.662771,23.9616 128.600066,23.9616 Z M142.042422,11.9094857 C144.945034,11.9094857 146.396318,13.4308419 146.396318,16.4736 L146.396318,22.9394286 C146.396318,23.2246871 146.313047,23.4544753 146.146504,23.6288 C145.979961,23.8031247 145.753941,23.8902857 145.468438,23.8902857 C145.182936,23.8902857 144.952951,23.8031247 144.778477,23.6288 C144.604003,23.4544753 144.516767,23.2246871 144.516767,22.9394286 L144.516767,21.7984 C144.215403,22.479851 143.755433,23.0067791 143.136844,23.3792 C142.518254,23.7516209 141.804508,23.9378286 140.995584,23.9378286 C140.250104,23.9378286 139.564115,23.7872777 138.937595,23.4861714 C138.311074,23.1850652 137.815417,22.7651075 137.450608,22.2262857 C137.085799,21.687464 136.903397,21.0931842 136.903397,20.4434286 C136.903397,19.5718052 137.125452,18.8943262 137.569567,18.4109714 C138.013683,17.9276166 138.74329,17.5789725 139.758411,17.3650286 C140.773532,17.1510846 142.185164,17.0441143 143.993348,17.0441143 L144.516767,17.0441143 L144.516767,16.2596571 C144.516767,15.3087952 144.32247,14.611507 143.933868,14.1677714 C143.545267,13.7240359 142.914792,13.5021714 142.042422,13.5021714 C140.963856,13.5021714 139.869445,13.7953494 138.759156,14.3817143 C138.330902,14.6511252 138.029542,14.7858286 137.855068,14.7858286 C137.664733,14.7858286 137.506123,14.714515 137.379233,14.5718857 C137.252343,14.4292564 137.188899,14.2470106 137.188899,14.0251429 C137.188899,13.8032751 137.256308,13.6091437 137.391129,13.4427429 C137.52595,13.276342 137.744039,13.1059818 138.045403,12.9316571 C138.600547,12.6147032 139.231023,12.3651057 139.936849,12.1828571 C140.642676,12.0006086 141.344526,11.9094857 142.042422,11.9094857 Z M141.257293,22.4164571 C142.208969,22.4164571 142.990125,22.0955461 143.600784,21.4537143 C144.211442,20.8118825 144.516767,19.9838527 144.516767,18.9696 L144.516767,18.2802286 L144.088515,18.2802286 C142.692724,18.2802286 141.630035,18.3396565 140.900416,18.4585143 C140.170798,18.577372 139.651349,18.7754653 139.342055,19.0528 C139.03276,19.3301347 138.878115,19.7382068 138.878115,20.2770286 C138.878115,20.8950888 139.104135,21.4061694 139.556181,21.8102857 C140.008227,22.214402 140.575259,22.4164571 141.257293,22.4164571 Z M162.812647,11.9094857 C165.382172,11.9094857 166.666915,13.4387657 166.666915,16.4973714 L166.666915,22.9394286 C166.666915,23.2405348 166.579679,23.4742849 166.405205,23.6406857 C166.230732,23.8070865 166.000747,23.8902857 165.715244,23.8902857 C165.429741,23.8902857 165.195791,23.8070865 165.013386,23.6406857 C164.830982,23.4742849 164.739781,23.2405348 164.739781,22.9394286 L164.739781,16.5449143 C164.739781,15.4831185 164.549448,14.7145167 164.168778,14.2390857 C163.788108,13.7636548 163.193319,13.5259429 162.384395,13.5259429 C161.416857,13.5259429 160.655528,13.8508158 160.100384,14.5005714 C159.545239,15.1503271 159.267671,16.0298611 159.267671,17.1392 L159.267671,22.9394286 C159.267671,23.2405348 159.17647,23.4742849 158.994066,23.6406857 C158.811661,23.8070865 158.577711,23.8902857 158.292208,23.8902857 C158.006705,23.8902857 157.776721,23.8070865 157.602247,23.6406857 C157.427773,23.4742849 157.340537,23.2405348 157.340537,22.9394286 L157.340537,16.5449143 C157.340537,15.4831185 157.150205,14.7145167 156.769534,14.2390857 C156.388864,13.7636548 155.786145,13.5259429 154.961359,13.5259429 C154.009683,13.5259429 153.252319,13.8508158 152.689244,14.5005714 C152.126169,15.1503271 151.844636,16.0298611 151.844636,17.1392 L151.844636,22.9394286 C151.844636,23.2405348 151.7574,23.4742849 151.582926,23.6406857 C151.408452,23.8070865 151.178467,23.8902857 150.892964,23.8902857 C150.607462,23.8902857 150.373511,23.8070865 150.191107,23.6406857 C150.008702,23.4742849 149.917501,23.2405348 149.917501,22.9394286 L149.917501,12.9078857 C149.917501,12.6226271 150.008702,12.392839 150.191107,12.2185143 C150.373511,12.0441896 150.607462,11.9570286 150.892964,11.9570286 C151.162606,11.9570286 151.38466,12.0402277 151.559134,12.2066286 C151.733608,12.3730294 151.820844,12.5988557 151.820844,12.8841143 L151.820844,14.0251429 C152.169792,13.3436918 152.653553,12.8207256 153.272142,12.4562286 C153.890732,12.0917315 154.604478,11.9094857 155.413403,11.9094857 C157.221587,11.9094857 158.403234,12.6701638 158.958378,14.1915429 C159.291465,13.4942441 159.799018,12.939583 160.481052,12.5275429 C161.163087,12.1155027 161.940277,11.9094857 162.812647,11.9094857 Z" id="Cam" fill="#64FFFF" fill-rule="nonzero"></path>
                <path d="M11.3468493,14.6283417 C11.3468493,12.8106953 12.8219949,11.3371888 14.6410959,11.3371888 C16.4601969,11.3371888 17.9353425,12.8106953 17.9353425,14.6283417 C17.9353425,16.4464475 16.4601969,17.9199541 14.6410959,17.9199541 C12.8219949,17.9199541 11.3468493,16.4464475 11.3468493,14.6283417 M18.7589041,14.6283417 C18.7589041,12.3562838 16.9149721,10.5142857 14.6410959,10.5142857 C12.3672197,10.5142857 10.5232877,12.3562838 10.5232877,14.6283417 C10.5232877,16.9008591 12.3672197,18.7428571 14.6410959,18.7428571 C16.9149721,18.7428571 18.7589041,16.9008591 18.7589041,14.6283417" id="Fill-18" fill="#64FFFF"></path>
                <path d="M15.0072868,13.5311018 C15.4016776,13.5547912 15.7155555,13.868879 15.7392598,14.2626121 C15.7392598,14.4647883 15.9027379,14.6285714 16.1054507,14.6285714 C16.3073461,14.6285714 16.4712329,14.4647883 16.4712329,14.2626121 C16.4499807,13.4637098 15.8066945,12.8208303 15.0072868,12.8 C14.8053914,12.8 14.6410959,12.9633747 14.6410959,13.1651425 C14.6410959,13.3677271 14.8053914,13.5311018 15.0072868,13.5311018" id="Fill-19" fill="#64FFFF"></path>
                <path d="M20.245163,22.9544334 L9.03713023,22.9544334 L9.03713023,21.9818853 L11.7425791,20.6056294 C13.5620069,21.5585623 15.7202864,21.5585623 17.5392671,20.6056294 L20.245163,21.9818853 L20.245163,22.9544334 Z M9.03713023,14.7844821 C9.03713023,11.6259816 11.5458842,9.06597226 14.6411466,9.06597226 C17.736409,9.06597226 20.245163,11.6259816 20.245163,14.7844821 C20.245163,17.9429825 17.736409,20.503448 14.6411466,20.503448 C11.5458842,20.503448 9.03713023,17.9429825 9.03713023,14.7844821 L9.03713023,14.7844821 Z M20.82586,21.3656037 L18.3479514,20.0947224 C21.2326608,18.0054774 21.9117052,13.9259757 19.8642902,10.9823299 C17.8168751,8.03868412 13.8190514,7.34576641 10.9343419,9.43501138 C8.04963245,11.5238002 7.37058802,15.603758 9.41755604,18.5474038 C9.83463863,19.1463511 10.3469394,19.6695747 10.9343419,20.0947224 L8.45643325,21.3656037 C8.32187606,21.4344849 8.23693963,21.5749844 8.2364926,21.7287126 L8.2364926,23.3631591 C8.2364926,23.5885056 8.41530614,23.7714286 8.6365879,23.7714286 L20.6457054,23.7714286 C20.8669871,23.7714286 21.0458007,23.5885056 21.0458007,23.3631591 L21.0458007,21.7287126 C21.0453536,21.5749844 20.9604172,21.4344849 20.82586,21.3656037 L20.82586,21.3656037 Z" id="Fill-20" fill="#64FFFF"></path>
                <path d="M43.3368257,15.4046629 C42.576759,16.0263771 42.1969517,16.8190629 42.1969517,17.78272 C42.1969517,18.8021486 42.5464649,19.6574629 43.2454911,20.34912 C43.9445173,21.0407771 44.8641934,21.38592 46.0036151,21.38592 C47.0824486,21.38592 47.9560053,21.0572343 48.6251895,20.3980343 C49.2934694,19.7402057 49.6280615,18.9205486 49.6280615,17.93952 C49.6280615,16.97312 49.2934694,16.1502629 48.6251895,15.4709486 C47.9560053,14.7911771 47.0824486,14.45152 46.0036151,14.45152 C44.98537,14.4656914 44.0964402,14.7834057 43.3368257,15.4046629 L43.3368257,15.4046629 Z M39.3479452,8.22889143 L42.379621,8.22889143 L42.379621,13.3196343 L42.4248361,13.3196343 C42.7594282,12.8730057 43.203441,12.5274057 43.758683,12.2828343 C44.3130207,12.03872 44.886801,11.8746057 45.4795716,11.7904914 C45.6314945,11.7767771 45.7757308,11.7662629 45.9127327,11.7589486 C46.0492824,11.7520914 46.1862844,11.7484343 46.3228341,11.7484343 C48.1766552,11.7484343 49.6963364,12.3706057 50.8818776,13.61312 C52.0669666,14.8565486 52.6597372,16.2951771 52.6597372,17.9290057 C52.6597372,18.16672 52.6443641,18.4144914 52.6140699,18.6727771 C52.5833236,18.93152 52.5304219,19.1861486 52.4544605,19.4375771 C52.3328317,19.9404343 52.1501625,20.4295771 51.9073572,20.9045486 C51.6640997,21.3790629 51.3751749,21.7982629 51.0414871,22.1612343 C50.4785585,22.7898057 49.787671,23.2688914 48.967016,23.5962057 C48.1463611,23.9244343 47.295412,24.0890057 46.4141687,24.0890057 C45.5478464,24.0890057 44.7461819,23.9381486 44.0091749,23.6382629 C43.2717158,23.33792 42.660407,22.8460343 42.1743442,22.1612343 L42.1286769,22.1402057 L42.1286769,23.7114057 L39.3479452,23.7114057 L39.3479452,8.22889143 Z" id="Fill-1" fill="#FFFFFF"></path>
                <path d="M64.3075666,17.8874514 C64.3075666,16.9237943 63.9689051,16.11008 63.2929386,15.4463086 C62.61652,14.7829943 61.738894,14.4584229 60.6605127,14.4721371 C59.5504807,14.4584229 58.6430127,14.7935086 57.9362999,15.4778514 C57.2295871,16.1626514 56.8764568,17.0147657 56.8764568,18.0337371 C56.8764568,18.98368 57.2445081,19.7832229 57.9819672,20.4323657 C58.7189742,21.0819657 59.5966002,21.4005943 60.6143932,21.3859657 C61.709052,21.4005943 62.5979818,21.0719086 63.2816348,20.40128 C63.9652879,19.7311086 64.3075666,18.9000229 64.3075666,17.90848 L64.3075666,17.8874514 Z M67.1796329,23.7114514 L64.398449,23.7114514 L64.398449,22.1402514 L64.3532339,22.1402514 C63.9729745,22.6426514 63.4710863,23.0554514 62.8480216,23.3763657 C62.225409,23.6977371 61.5797366,23.9139657 60.9110046,24.0259657 C60.7744548,24.03968 60.6338357,24.0533943 60.4895994,24.0680229 C60.3444588,24.0817371 60.2042918,24.0885943 60.0677421,24.0885943 C59.0951642,24.0885943 58.2130166,23.9171657 57.4235601,23.5752229 C56.6331993,23.23328 55.9644673,22.7619657 55.417364,22.16128 C54.915928,21.6026514 54.5288863,20.9603657 54.2553346,20.2339657 C53.981783,19.5075657 53.8447811,18.7391086 53.8447811,17.9290514 C53.8447811,17.1189943 53.970027,16.3720229 54.220519,15.6872229 C54.4719152,15.0033371 54.8856338,14.3605943 55.4630313,13.7599086 C56.1014692,13.0755657 56.811347,12.5690514 57.5944734,12.2408229 C58.3771476,11.9130514 59.2312618,11.74848 60.1586245,11.74848 C61.0249468,11.74848 61.8229941,11.9199086 62.5518623,12.2618514 C63.2816348,12.6042514 63.897013,13.1034514 64.398449,13.7599086 L64.398449,12.1050514 L67.1796329,12.1050514 L67.1796329,23.7114514 Z" id="Fill-3" fill="#FFFFFF"></path>
                <polygon id="Fill-5" fill="#FFFFFF" points="69.4356427 23.7115429 72.4673185 23.7115429 72.4673185 8.22857143 69.4356427 8.22857143"></polygon>
                <path d="M84.4794915,16.6722743 C84.236234,15.9874743 83.7958384,15.4498743 83.1574005,15.0590171 C82.5194148,14.66816 81.8131541,14.4725029 81.0377143,14.4725029 L80.9468319,14.4725029 L80.8550451,14.4725029 C80.1257248,14.5141029 79.4420717,14.73216 78.8036338,15.1262171 C78.1656481,15.5207314 77.7401735,16.0354743 77.5272101,16.6722743 L84.4794915,16.6722743 Z M77.5733296,19.1445029 C77.8007618,19.8288457 78.2226191,20.37376 78.8379973,20.7783314 C79.4538276,21.18336 80.1406458,21.3863314 80.9011646,21.3863314 C81.4781099,21.3863314 82.0211438,21.29536 82.5302664,21.1138743 C83.039389,20.9319314 83.4386387,20.6878171 83.7275635,20.38016 L87.0784582,20.3591314 C86.6981988,21.4069029 85.9272805,22.29056 84.7647991,23.0096457 C83.6023176,23.7291886 82.3521187,24.08896 81.0151067,24.08896 C79.1762066,24.08896 77.607241,23.4987886 76.3082097,22.3184457 C75.0087263,21.13856 74.3589847,19.7031314 74.3589847,18.0130743 C74.3589847,16.2951314 75.004657,14.82176 76.2964538,13.5920457 C77.5882506,12.3632457 79.1762066,11.7483886 81.0603219,11.7483886 C82.8684757,11.7483886 84.3999128,12.3582171 85.6537289,13.57696 C86.9070928,14.7952457 87.5342269,16.2123886 87.5342269,17.8279314 C87.5342269,18.0094171 87.522471,18.1867886 87.4998634,18.36096 C87.4768037,18.5346743 87.4501268,18.7056457 87.4198326,18.8725029 C87.4049116,18.9287314 87.3931557,18.9776457 87.3859213,19.0192457 C87.3782347,19.0613029 87.3746175,19.1029029 87.3746175,19.1445029 L77.5733296,19.1445029 Z" id="Fill-7" fill="#FFFFFF"></path>
                <path d="M89.4946654,12.1050971 L92.2980046,12.1050971 L92.2980046,13.17344 L92.3441241,13.17344 C92.6927329,12.7405257 93.1530231,12.40544 93.7231861,12.1677257 C94.2924448,11.9304686 94.8892848,11.7905829 95.5123496,11.7485257 L95.6488993,11.7485257 L95.7859012,11.7485257 L95.9681183,11.7485257 C96.0282544,11.7485257 96.089747,11.75584 96.1503353,11.7695543 C96.7575748,11.8116114 97.3471803,11.9583543 97.9168912,12.2097829 C98.4870542,12.4612114 98.9771864,12.78944 99.3872878,13.1940114 C99.4478761,13.25024 99.5048472,13.3028114 99.5582011,13.3512686 C99.6111028,13.4001829 99.6603873,13.4596114 99.7065068,13.5295543 C100.192117,14.1581257 100.481494,14.8287543 100.572377,15.5409829 C100.663711,16.2532114 100.709379,16.9796114 100.709379,17.7197257 L100.709379,23.7114971 L97.6777031,23.7114971 L97.6777031,18.2436114 L97.6777031,17.6986971 C97.6777031,17.50304 97.6695643,17.30784 97.6546433,17.1121829 C97.623897,16.8049829 97.5709953,16.50784 97.4950339,16.2216686 C97.4190724,15.9354971 97.3051302,15.6740114 97.1532073,15.43584 C96.9556171,15.1569829 96.6856827,14.93344 96.3438562,14.7652114 C96.0024818,14.5978971 95.6488993,14.5005257 95.2844652,14.4721829 L95.2274941,14.4721829 L95.1474633,14.4721829 L94.9996098,14.4721829 C94.9462559,14.4721829 94.8892848,14.4794971 94.8282444,14.4932114 C94.4782791,14.5348114 94.1369047,14.6436114 93.8023126,14.81824 C93.4681727,14.9928686 93.2099942,15.2196114 93.027325,15.4989257 C92.8758542,15.7224686 92.761912,15.9844114 92.6859506,16.2847543 C92.609537,16.5850971 92.5638697,16.88864 92.5489487,17.19584 C92.5335755,17.3777829 92.5263411,17.5592686 92.5263411,17.7407543 L92.5263411,18.2641829 L92.5263411,18.3793829 L92.5263411,18.4740114 L92.5263411,23.7114971 L89.4946654,23.7114971 L89.4946654,12.1050971 Z" id="Fill-8" fill="#FFFFFF"></path>
                <path d="M113.086483,17.8874514 C113.086483,16.9237943 112.747822,16.11008 112.071855,15.4463086 C111.395437,14.7829943 110.517811,14.4584229 109.439429,14.4721371 C108.329397,14.4584229 107.421929,14.7935086 106.715217,15.4778514 C106.008956,16.1626514 105.654921,17.0147657 105.654921,18.0337371 C105.654921,18.98368 106.023877,19.7832229 106.760884,20.4323657 C107.497891,21.0819657 108.375517,21.4005943 109.393762,21.3859657 C110.487969,21.4005943 111.376898,21.0719086 112.060552,20.40128 C112.744205,19.7311086 113.086483,18.9000229 113.086483,17.90848 L113.086483,17.8874514 Z M115.95855,23.7114514 L113.177366,23.7114514 L113.177366,22.1402514 L113.132151,22.1402514 C112.751891,22.6426514 112.250003,23.0554514 111.62739,23.3763657 C111.004326,23.6977371 110.358653,23.9139657 109.689921,24.0259657 C109.553372,24.03968 109.412752,24.0533943 109.268516,24.0680229 C109.123375,24.0817371 108.983661,24.0885943 108.846659,24.0885943 C107.874081,24.0885943 106.991933,23.9171657 106.202477,23.5752229 C105.412116,23.23328 104.743384,22.7619657 104.196733,22.16128 C103.694845,21.6026514 103.307803,20.9603657 103.034251,20.2339657 C102.7607,19.5075657 102.623246,18.7391086 102.623246,17.9290514 C102.623246,17.1189943 102.749396,16.3720229 102.999436,15.6872229 C103.250832,15.0033371 103.664098,14.3605943 104.241948,13.7599086 C104.880386,13.0755657 105.590716,12.5690514 106.37339,12.2408229 C107.156064,11.9130514 108.010178,11.74848 108.937541,11.74848 C109.803863,11.74848 110.601911,11.9199086 111.330779,12.2618514 C112.060552,12.6042514 112.67593,13.1034514 113.177366,13.7599086 L113.177366,12.1050514 L115.95855,12.1050514 L115.95855,23.7114514 Z" id="Fill-9" fill="#FFFFFF"></path>
                <path d="M12.3460028,0.592793557 L2.27758362,6.26932316 C1.69797383,6.59669351 1.19289172,7.05654939 0.806335538,7.60955207 L0.316518126,8.51524657 C0.106403966,9.03750177 0,9.57739155 0,10.1222552 L0,21.9152748 C0,23.5010315 0.872781896,24.9769111 2.27758362,25.7673025 L12.3460028,31.4451886 C12.8766757,31.7440723 13.462571,31.9299138 14.0920155,31.9990957 L15.1398925,32 C15.770235,31.9321747 16.3570282,31.7467854 16.889497,31.4479017 L26.9996696,25.7663982 C28.4071651,24.9751024 29.2821918,23.4974142 29.2821918,21.910301 L29.2821918,10.1267769 C29.2821918,9.51634874 29.1492991,8.91722481 28.8875543,8.34206585 L28.3582282,7.45807546 C27.9828961,6.96611559 27.5267508,6.56685036 26.9996696,6.27113184 L16.889497,0.590080543 C16.1895654,0.196693514 15.40478,0 14.6204436,0 C13.8338624,0 13.0472812,0.197597852 12.3460028,0.592793557 Z M16.4517592,1.38001978 L26.5623807,7.06107108 C26.9673443,7.28851208 27.3215752,7.59463049 27.6160942,7.97128727 L28.0915449,8.76348735 C28.2854964,9.20570863 28.384268,9.66466017 28.384268,10.1267769 L28.384268,21.910301 C28.384268,23.1700438 27.6865813,24.345231 26.5623807,24.976459 L16.4522081,30.6579624 C16.0396121,30.8894729 15.581671,31.03688 15.0900578,31.095662 L14.1436461,31.0947577 C13.6529308,31.0350714 13.1954386,30.8876643 12.7846385,30.6561537 L2.71532145,24.9782676 C1.59426364,24.3474919 0.897923761,23.1736612 0.897923761,21.9152748 L0.897923761,10.1222552 C0.897923761,9.7107814 0.976043129,9.29930762 1.13093498,8.90004239 L1.56867281,8.09020772 C1.87351793,7.66652536 2.26950231,7.31021619 2.71621938,7.05835806 L12.7841896,1.38228063 C13.3391064,1.06937968 13.9739385,0.904337996 14.6204436,0.904337996 C15.2656019,0.904337996 15.8986381,1.06847534 16.4517592,1.38001978 Z" id="Fill-17" fill="#64FFFF"></path>
            </g>
        </g>
    </g>
</svg>