<?xml version="1.0" encoding="UTF-8"?>
<svg width="365px" height="70px" viewBox="0 0 365 70" version="1.1" xmlns="http://www.w3.org/2000/svg" xmlns:xlink="http://www.w3.org/1999/xlink">
    <!-- Generator: Sketch 53.2 (72643) - https://sketchapp.com -->
    <title>balenaCam_dark</title>
    <desc>Created with Sketch.</desc>
    <g id="Page-1" stroke="none" stroke-width="1" fill="none" fill-rule="evenodd">
        <g id="balenaCam" transform="translate(-131.000000, -65.000000)">
            <g id="balenaCam_dark" transform="translate(131.000000, 65.000000)">
                <path d="M281.072,52.416 C277.605316,52.416 274.606679,51.6620075 272.076,50.154 C269.545321,48.6459925 267.59534,46.4793475 266.226,43.654 C264.85666,40.8286525 264.172,37.4920192 264.172,33.644 C264.172,29.8306476 264.85666,26.5113475 266.226,23.686 C267.59534,20.8606525 269.545321,18.6940075 272.076,17.186 C274.606679,15.6779925 277.605316,14.924 281.072,14.924 C283.394678,14.924 285.587323,15.2966629 287.65,16.042 C289.712677,16.7873371 291.506659,17.8533264 293.032,19.24 C293.586669,19.7600026 293.864,20.3666632 293.864,21.06 C293.864,21.5453358 293.725335,21.9699982 293.448,22.334 C293.170665,22.6980018 292.841335,22.88 292.46,22.88 C292.043998,22.88 291.541336,22.6893352 290.952,22.308 C289.183991,20.9213264 287.580674,19.9506694 286.142,19.396 C284.703326,18.8413306 283.048009,18.564 281.176,18.564 C277.154647,18.564 274.060677,19.8726536 271.894,22.49 C269.727322,25.1073464 268.644,28.8253092 268.644,33.644 C268.644,38.4973576 269.727322,42.2326536 271.894,44.85 C274.060677,47.4673464 277.154647,48.776 281.176,48.776 C283.013343,48.776 284.659993,48.4986694 286.116,47.944 C287.572007,47.3893306 289.183991,46.4186736 290.952,45.032 C291.541336,44.6506648 292.043998,44.46 292.46,44.46 C292.841335,44.46 293.170665,44.6333316 293.448,44.98 C293.725335,45.3266684 293.864,45.7599974 293.864,46.28 C293.864,46.9733368 293.586669,47.5799974 293.032,48.1 C291.506659,49.4866736 289.712677,50.5526629 287.65,51.298 C285.587323,52.0433371 283.394678,52.416 281.072,52.416 Z M310.452,26.052 C316.796032,26.052 319.968,29.3799667 319.968,36.036 L319.968,50.18 C319.968,50.8040031 319.786002,51.3066648 319.422,51.688 C319.057998,52.0693352 318.564003,52.26 317.94,52.26 C317.315997,52.26 316.813335,52.0693352 316.432,51.688 C316.050665,51.3066648 315.86,50.8040031 315.86,50.18 L315.86,47.684 C315.20133,49.1746741 314.196007,50.3273293 312.844,51.142 C311.491993,51.9566707 309.932009,52.364 308.164,52.364 C306.534659,52.364 305.03534,52.03467 303.666,51.376 C302.29666,50.71733 301.213337,49.7986726 300.416,48.62 C299.618663,47.4413274 299.22,46.1413404 299.22,44.72 C299.22,42.8133238 299.705328,41.3313386 300.676,40.274 C301.646672,39.2166614 303.241322,38.4540023 305.46,37.986 C307.678678,37.5179977 310.76398,37.284 314.716,37.284 L315.86,37.284 L315.86,35.568 C315.86,33.4879896 315.435338,31.9626715 314.586,30.992 C313.736662,30.0213285 312.358676,29.536 310.452,29.536 C308.094655,29.536 305.702679,30.1773269 303.276,31.46 C302.339995,32.0493363 301.681335,32.344 301.3,32.344 C300.883998,32.344 300.537335,32.1880016 300.26,31.876 C299.982665,31.5639984 299.844,31.1653358 299.844,30.68 C299.844,30.1946642 299.991332,29.7700018 300.286,29.406 C300.580668,29.0419982 301.05733,28.6693352 301.716,28.288 C302.929339,27.5946632 304.307326,27.0486687 305.85,26.65 C307.392674,26.2513313 308.926659,26.052 310.452,26.052 Z M308.736,49.036 C310.81601,49.036 312.523327,48.334007 313.858,46.93 C315.192673,45.525993 315.86,43.7146778 315.86,41.496 L315.86,39.988 L314.924,39.988 C311.873318,39.988 309.550675,40.1179987 307.956,40.378 C306.361325,40.6380013 305.226003,41.0713303 304.55,41.678 C303.873997,42.2846697 303.536,43.1773274 303.536,44.356 C303.536,45.7080068 304.029995,46.8259956 305.018,47.71 C306.006005,48.5940044 307.245326,49.036 308.736,49.036 Z M355.848,26.052 C361.464028,26.052 364.272,29.3972999 364.272,36.088 L364.272,50.18 C364.272,50.83867 364.081335,51.3499982 363.7,51.714 C363.318665,52.0780018 362.816003,52.26 362.192,52.26 C361.567997,52.26 361.056669,52.0780018 360.658,51.714 C360.259331,51.3499982 360.06,50.83867 360.06,50.18 L360.06,36.192 C360.06,33.8693217 359.644004,32.1880052 358.812,31.148 C357.979996,30.1079948 356.680009,29.588 354.912,29.588 C352.797323,29.588 351.133339,30.2986596 349.92,31.72 C348.706661,33.1413404 348.1,35.0653212 348.1,37.492 L348.1,50.18 C348.1,50.83867 347.900669,51.3499982 347.502,51.714 C347.103331,52.0780018 346.592003,52.26 345.968,52.26 C345.343997,52.26 344.841335,52.0780018 344.46,51.714 C344.078665,51.3499982 343.888,50.83867 343.888,50.18 L343.888,36.192 C343.888,33.8693217 343.472004,32.1880052 342.64,31.148 C341.807996,30.1079948 340.490676,29.588 338.688,29.588 C336.60799,29.588 334.952673,30.2986596 333.722,31.72 C332.491327,33.1413404 331.876,35.0653212 331.876,37.492 L331.876,50.18 C331.876,50.83867 331.685335,51.3499982 331.304,51.714 C330.922665,52.0780018 330.420003,52.26 329.796,52.26 C329.171997,52.26 328.660669,52.0780018 328.262,51.714 C327.863331,51.3499982 327.664,50.83867 327.664,50.18 L327.664,28.236 C327.664,27.6119969 327.863331,27.1093352 328.262,26.728 C328.660669,26.3466648 329.171997,26.156 329.796,26.156 C330.385336,26.156 330.870665,26.3379982 331.252,26.702 C331.633335,27.0660018 331.824,27.5599969 331.824,28.184 L331.824,30.68 C332.58667,29.1893259 333.643993,28.0453373 334.996,27.248 C336.348007,26.4506627 337.907991,26.052 339.676,26.052 C343.62802,26.052 346.210661,27.7159834 347.424,31.044 C348.152004,29.518659 349.261326,28.3053378 350.752,27.404 C352.242674,26.5026622 353.941324,26.052 355.848,26.052 Z" id="Cam" fill="#12DDEA" fill-rule="nonzero"></path>
                <path d="M24.8,31.9994975 C24.8,28.0233961 28.0241206,24.8001005 32,24.8001005 C35.9758794,24.8001005 39.2,28.0233961 39.2,31.9994975 C39.2,35.9766039 35.9758794,39.1998995 32,39.1998995 C28.0241206,39.1998995 24.8,35.9766039 24.8,31.9994975 M41,31.9994975 C41,27.0293707 36.9698492,23 32,23 C27.0301508,23 23,27.0293707 23,31.9994975 C23,36.9706293 27.0301508,41 32,41 C36.9698492,41 41,36.9706293 41,31.9994975" id="Fill-18" fill="#12DDEA"></path>
                <path d="M32.8003573,29.5992852 C33.6623493,29.6511057 34.3483698,30.3381729 34.4001787,31.1994639 C34.4001787,31.6417244 34.757481,32 35.200536,32 C35.6418044,32 36,31.6417244 36,31.1994639 C35.9535507,29.4518651 34.5475659,28.0455662 32.8003573,28 C32.3590889,28 32,28.3573822 32,28.7987492 C32,29.2419031 32.3590889,29.5992852 32.8003573,29.5992852" id="Fill-19" fill="#12DDEA"></path>
                <path d="M44.2484102,50.2128231 L19.7518116,50.2128231 L19.7518116,48.0853742 L25.6649184,45.0748144 C29.6415121,47.1593551 34.3587097,47.1593551 38.3343263,45.0748144 L44.2484102,48.0853742 L44.2484102,50.2128231 Z M19.7518116,32.3410545 C19.7518116,25.4318347 25.2350164,19.8318143 32.0001109,19.8318143 C38.7652054,19.8318143 44.2484102,25.4318347 44.2484102,32.3410545 C44.2484102,39.2502743 38.7652054,44.8512925 32.0001109,44.8512925 C25.2350164,44.8512925 19.7518116,39.2502743 19.7518116,32.3410545 L19.7518116,32.3410545 Z M45.5175982,46.7372581 L40.1018098,43.9572052 C46.4067138,39.3869818 47.8908528,30.4630719 43.4159636,24.0238467 C38.9410744,17.5846215 30.2033159,16.068864 23.898412,20.6390874 C17.593508,25.2083129 16.109369,34.1332207 20.5832812,40.5724459 C21.4948689,41.8826431 22.6145682,43.0271947 23.898412,43.9572052 L18.4826236,46.7372581 C18.1885315,46.8879357 18.002892,47.1952783 18.001915,47.5315589 L18.001915,51.1069105 C18.001915,51.599856 18.392735,52 18.8763747,52 L45.123847,52 C45.6074868,52 45.9983068,51.599856 45.9983068,51.1069105 L45.9983068,47.5315589 C45.9973298,47.1952783 45.8116903,46.8879357 45.5175982,46.7372581 L45.5175982,46.7372581 Z" id="Fill-20" fill="#12DDEA"></path>
                <g id="balena" transform="translate(86.000000, 18.000000)" fill="#2A506F">
                    <path d="M8.71821176,15.6977 C7.05698824,17.0577 6.22687059,18.7917 6.22687059,20.8997 C6.22687059,23.1297 6.99077647,25.0007 8.51858824,26.5137 C10.0464,28.0267 12.0564706,28.7817 14.5468235,28.7817 C16.9047529,28.7817 18.8140235,28.0627 20.2766118,26.6207 C21.7372235,25.1817 22.4685176,23.3887 22.4685176,21.2427 C22.4685176,19.1287 21.7372235,17.3287 20.2766118,15.8427 C18.8140235,14.3557 16.9047529,13.6127 14.5468235,13.6127 C12.3213176,13.6437 10.3784471,14.3387 8.71821176,15.6977 L8.71821176,15.6977 Z M1.42108547e-14,0.0007 L6.62611765,0.0007 L6.62611765,11.1367 L6.72494118,11.1367 C7.45623529,10.1597 8.42668235,9.4037 9.64023529,8.8687 C10.8518118,8.3347 12.1058824,7.9757 13.4014588,7.7917 C13.7335059,7.7617 14.0487529,7.7387 14.3481882,7.7227 C14.6466353,7.7077 14.9460706,7.6997 15.2445176,7.6997 C19.2962824,7.6997 22.6177412,9.0607 25.2088941,11.7787 C27.7990588,14.4987 29.0946353,17.6457 29.0946353,21.2197 C29.0946353,21.7397 29.0610353,22.2817 28.9948235,22.8467 C28.9276235,23.4127 28.812,23.9697 28.6459765,24.5197 C28.3801412,25.6197 27.9808941,26.6897 27.4502118,27.7287 C26.9185412,28.7667 26.2870588,29.6837 25.5577412,30.4777 C24.3273882,31.8527 22.8173647,32.9007 21.0237176,33.6167 C19.2300706,34.3347 17.3702118,34.6947 15.4441412,34.6947 C13.5506824,34.6947 11.7985412,34.3647 10.1877176,33.7087 C8.57590588,33.0517 7.23981176,31.9757 6.17745882,30.4777 L6.07764706,30.4317 L6.07764706,33.8687 L1.42108547e-14,33.8687 L1.42108547e-14,0.0007 Z" id="Fill-1"></path>
                    <path d="M54.5524659,21.1288 C54.5524659,19.0208 53.8122776,17.2408 52.3348659,15.7888 C50.8564659,14.3378 48.9383012,13.6278 46.58136,13.6578 C44.1552424,13.6278 42.1718541,14.3608 40.6272424,15.8578 C39.0826306,17.3558 38.3108188,19.2198 38.3108188,21.4488 C38.3108188,23.5268 39.1152424,25.2758 40.7270541,26.6958 C42.3378776,28.1168 44.2560424,28.8138 46.48056,28.7818 C48.8730776,28.8138 50.8159482,28.0948 52.31016,26.6278 C53.8043718,25.1618 54.5524659,23.3438 54.5524659,21.1748 L54.5524659,21.1288 Z M60.8297365,33.8688 L54.7511012,33.8688 L54.7511012,30.4318 L54.6522776,30.4318 C53.8211718,31.5308 52.7242306,32.4338 51.3624424,33.1358 C50.0016424,33.8388 48.5904424,34.3118 47.1288424,34.5568 C46.8303953,34.5868 46.5230541,34.6168 46.2078071,34.6488 C45.8905835,34.6788 45.5842306,34.6938 45.2857835,34.6938 C43.1600894,34.6938 41.2320424,34.3188 39.5065835,33.5708 C37.7791482,32.8228 36.3175482,31.7918 35.1217835,30.4778 C34.0258306,29.2558 33.1799012,27.8508 32.5820188,26.2618 C31.9841365,24.6728 31.6847012,22.9918 31.6847012,21.2198 C31.6847012,19.4478 31.9584424,17.8138 32.5059247,16.3158 C33.0553835,14.8198 33.9596188,13.4138 35.2215953,12.0998 C36.6169835,10.6028 38.1685129,9.4948 39.8801365,8.7768 C41.5907718,8.0598 43.4575482,7.6998 45.4844188,7.6998 C47.3778776,7.6998 49.1221129,8.0748 50.7151482,8.8228 C52.31016,9.5718 53.6551482,10.6638 54.7511012,12.0998 L54.7511012,8.4798 L60.8297365,8.4798 L60.8297365,33.8688 Z" id="Fill-3"></path>
                    <polygon id="Fill-5" points="65.7605365 33.869 72.3866541 33.869 72.3866541 1.42108547e-14 65.7605365 1.42108547e-14"></polygon>
                    <path d="M98.6408047,18.4706 C98.1091341,16.9726 97.1465929,15.7966 95.7512047,14.9416 C94.3568047,14.0866 92.8131812,13.6586 91.1183576,13.6586 L90.9197224,13.6586 L90.7191106,13.6586 C89.1250871,13.7496 87.6308753,14.2266 86.2354871,15.0886 C84.8410871,15.9516 83.9111576,17.0776 83.4456988,18.4706 L98.6408047,18.4706 Z M83.5464988,23.8786 C84.0435812,25.3756 84.9656047,26.5676 86.3105929,27.4526 C87.6565694,28.3386 89.1576988,28.7826 90.8199106,28.7826 C92.0808988,28.7826 93.2677694,28.5836 94.3805224,28.1866 C95.4932753,27.7886 96.3658871,27.2546 96.9973694,26.5816 L104.321181,26.5356 C103.490075,28.8276 101.805134,30.7606 99.2643812,32.3336 C96.7236282,33.9076 93.9911576,34.6946 91.0689459,34.6946 C87.0497929,34.6946 83.6206165,33.4036 80.7814165,30.8216 C77.9412282,28.2406 76.5211341,25.1006 76.5211341,21.4036 C76.5211341,17.6456 77.9323341,14.4226 80.7557224,11.7326 C83.5791106,9.0446 87.0497929,7.6996 91.1677694,7.6996 C95.1197224,7.6996 98.4668753,9.0336 101.207252,11.6996 C103.94664,14.3646 105.317322,17.4646 105.317322,20.9986 C105.317322,21.3956 105.291628,21.7836 105.242216,22.1646 C105.191816,22.5446 105.133511,22.9186 105.067299,23.2836 C105.034687,23.4066 105.008993,23.5136 104.993181,23.6046 C104.976381,23.6966 104.968475,23.7876 104.968475,23.8786 L83.5464988,23.8786 Z" id="Fill-7"></path>
                    <path d="M109.602113,8.4799 L115.729172,8.4799 L115.729172,10.8169 L115.829972,10.8169 C116.591901,9.8699 117.597925,9.1369 118.844089,8.6169 C120.088278,8.0979 121.392748,7.7919 122.754536,7.6999 L123.052984,7.6999 L123.352419,7.6999 L123.750678,7.6999 C123.882113,7.6999 124.016513,7.7159 124.148936,7.7459 C125.476136,7.8379 126.764795,8.1589 128.009972,8.7089 C129.256136,9.2589 130.327384,9.9769 131.223713,10.8619 C131.356136,10.9849 131.480654,11.0999 131.597266,11.2059 C131.712889,11.3129 131.820607,11.4429 131.921407,11.5959 C132.982772,12.9709 133.615242,14.4379 133.813878,15.9959 C134.013501,17.5539 134.113313,19.1429 134.113313,20.7619 L134.113313,33.8689 L127.487195,33.8689 L127.487195,21.9079 L127.487195,20.7159 C127.487195,20.2879 127.469407,19.8609 127.436795,19.4329 C127.369595,18.7609 127.253972,18.1109 127.087948,17.4849 C126.921925,16.8589 126.672889,16.2869 126.340842,15.7659 C125.908984,15.1559 125.319007,14.6669 124.571901,14.2989 C123.825784,13.9329 123.052984,13.7199 122.256466,13.6579 L122.131948,13.6579 L121.957031,13.6579 L121.633878,13.6579 C121.517266,13.6579 121.392748,13.6739 121.259336,13.7039 C120.494442,13.7949 119.748325,14.0329 119.017031,14.4149 C118.286725,14.7969 117.722442,15.2929 117.323195,15.9039 C116.992136,16.3929 116.743101,16.9659 116.577078,17.6229 C116.410066,18.2799 116.310254,18.9439 116.277642,19.6159 C116.244042,20.0139 116.228231,20.4109 116.228231,20.8079 L116.228231,21.9529 L116.228231,22.2049 L116.228231,22.4119 L116.228231,33.8689 L109.602113,33.8689 L109.602113,8.4799 Z" id="Fill-8"></path>
                    <path d="M161.165068,21.1288 C161.165068,19.0208 160.42488,17.2408 158.947468,15.7888 C157.469068,14.3378 155.550904,13.6278 153.193962,13.6578 C150.767845,13.6278 148.784456,14.3608 147.239845,15.8578 C145.696221,17.3558 144.922433,19.2198 144.922433,21.4488 C144.922433,23.5268 145.728833,25.2758 147.339656,26.6958 C148.95048,28.1168 150.868645,28.8138 153.094151,28.7818 C155.48568,28.8138 157.428551,28.0948 158.922762,26.6278 C160.416974,25.1618 161.165068,23.3438 161.165068,21.1748 L161.165068,21.1288 Z M167.442339,33.8688 L161.363704,33.8688 L161.363704,30.4318 L161.26488,30.4318 C160.433774,31.5308 159.336833,32.4338 157.976033,33.1358 C156.614245,33.8388 155.203045,34.3118 153.741445,34.5568 C153.442998,34.5868 153.135656,34.6168 152.820409,34.6488 C152.503186,34.6788 152.197821,34.6938 151.898386,34.6938 C149.772692,34.6938 147.844645,34.3188 146.119186,33.5708 C144.391751,32.8228 142.930151,31.7918 141.735374,30.4778 C140.638433,29.2558 139.792504,27.8508 139.194621,26.2618 C138.596739,24.6728 138.296315,22.9918 138.296315,21.2198 C138.296315,19.4478 138.572033,17.8138 139.118527,16.3158 C139.667986,14.8198 140.571233,13.4138 141.834198,12.0998 C143.229586,10.6028 144.782104,9.4948 146.492739,8.7768 C148.203374,8.0598 150.070151,7.6998 152.097021,7.6998 C153.99048,7.6998 155.734715,8.0748 157.327751,8.8228 C158.922762,9.5718 160.267751,10.6638 161.363704,12.0998 L161.363704,8.4798 L167.442339,8.4798 L167.442339,33.8688 Z" id="Fill-9"></path>
                </g>
                <path d="M26.9837785,1.29673591 L4.97795222,13.7141444 C3.71114041,14.4302671 2.60721842,15.4362018 1.76235013,16.6458952 L0.691791113,18.6271019 C0.232559566,19.7695351 0,20.950544 0,22.1424332 L0,47.9396637 C0,51.4085064 1.9075772,54.6369931 4.97795222,56.3659743 L26.9837785,68.7863501 C28.1436325,69.4401583 29.424182,69.8466864 30.7999141,69.9980218 L33.0901843,70 C34.4678789,69.851632 35.750391,69.446093 36.9141701,68.7922849 L59.0112539,56.363996 C62.0875165,54.6330366 64,51.4005935 64,47.9287834 L64,22.1523244 C64,20.8170129 63.7095459,19.5064293 63.137469,18.248269 L61.9805587,16.3145401 C61.160222,15.2383778 60.1632578,14.3649852 59.0112539,13.7181009 L36.9141701,1.29080119 C35.3843795,0.430267062 33.66913,0 31.9548619,0 C30.2356873,0 28.5165128,0.432245302 26.9837785,1.29673591 Z M35.9574377,3.01879327 L58.0555027,15.446093 C58.9406029,15.9436202 59.7148202,16.6132542 60.3585293,17.4371909 L61.3976879,19.1701286 C61.8215939,20.1374876 62.037472,21.1414441 62.037472,22.1523244 L62.037472,47.9287834 C62.037472,50.6844708 60.5125878,53.2551929 58.0555027,54.636004 L35.9584189,67.0642928 C35.0566373,67.5707221 34.0557481,67.8931751 32.981264,68.0217606 L30.9127595,68.0197824 C29.840238,67.8892186 28.84033,67.5667656 27.9424734,67.0603363 L5.93468462,54.6399604 C3.48446843,53.2601385 1.96252798,50.6923838 1.96252798,47.9396637 L1.96252798,22.1424332 C1.96252798,21.2423343 2.13326792,20.3422354 2.47180399,19.4688427 L3.42853638,17.6973294 C4.09481463,16.7705242 4.96028947,15.9910979 5.93664714,15.4401583 L27.9414921,3.02373887 C29.1543344,2.33926805 30.5418417,1.97823937 31.9548619,1.97823937 C33.3649382,1.97823937 34.7485204,2.33728981 35.9574377,3.01879327 Z" id="Fill-17" fill="#12DDEA"></path>
            </g>
        </g>
    </g>
</svg>