<?xml version="1.0" encoding="utf-8"?>
<!-- Generator: Adobe Illustrator 22.1.0, SVG Export Plug-In . SVG Version: 6.00 Build 0)  -->
<svg version="1.1" id="Ebene_1" xmlns="http://www.w3.org/2000/svg" xmlns:xlink="http://www.w3.org/1999/xlink" x="0px" y="0px"
	 viewBox="0 0 64.2 70.8" style="enable-background:new 0 0 64.2 70.8;" xml:space="preserve">
<style type="text/css">
	.st0{fill:#FDE860;}
	.st1{fill:#F5E11A;}
	.st2{fill:#00ADEE;}
	.st3{fill:#00A275;}
	.st4{fill:#E99D24;}
	.st5{fill:#F4BF30;}
</style>
<g>
	<g>
		<path class="st0" d="M63.4,18.7l-6.7,4l-18.5,11c-3,1.8-4.9,5.1-4.9,8.6V63v7.8c1.4-0.2,2.7-0.6,3.8-1.2l22.2-12.7
			c3.1-1.8,5-5.1,5-8.7V22.7C64.2,21.4,63.9,20,63.4,18.7z"/>
		<g>
			<path class="st1" d="M53.2,52.2c2.5-1.4,4-4.1,4-7V25.7c0-1-0.2-2-0.6-2.9l-18.5,11c-3,1.8-4.9,5.1-4.9,8.6V63c1-0.1,2-0.4,2.9-1
				L53.2,52.2z"/>
			<path class="st0" d="M63.4,18.7l-6.7,4c0.4,0.9,0.6,1.9,0.6,2.9v19.6c0,2.9-1.6,5.6-4,7L36.1,62c-0.9,0.5-1.9,0.8-2.9,1v7.8
				c1.4-0.2,2.7-0.6,3.8-1.2l22.2-12.7c3.1-1.8,5-5.1,5-8.7V22.7C64.2,21.4,63.9,20,63.4,18.7z"/>
		</g>
	</g>
	<g>
		<path class="st2" d="M59.2,14.1L37,1.3c-3.1-1.8-6.9-1.8-10,0L5,14.1c-1.3,0.7-2.4,1.8-3.2,3L8.5,21l18.7,10.8
			c2.1,1.3,3.8,3.2,4.9,5.4c1-2.2,2.7-4.1,4.9-5.4l18.6-11l6.7-4C61.4,15.6,60.4,14.7,59.2,14.1z"/>
		<g>
			<path class="st3" d="M53.2,18.7L36.1,8.8c-2.5-1.4-5.6-1.4-8.1,0l-17,9.8C10,19.2,9.2,20,8.5,21l18.7,10.8
				c2.1,1.3,3.8,3.2,4.9,5.4c1-2.2,2.7-4.1,4.9-5.4l18.6-11C54.9,19.9,54.1,19.2,53.2,18.7z"/>
			<path class="st2" d="M59.2,14.1L37,1.3c-3.1-1.8-6.9-1.8-10,0L5,14.1c-1.3,0.7-2.4,1.8-3.2,3L8.5,21C9.2,20,10,19.2,11,18.7
				l17-9.8c2.5-1.4,5.6-1.4,8.1,0l17.1,9.8c0.9,0.5,1.7,1.2,2.3,2.1l6.7-4C61.4,15.6,60.4,14.7,59.2,14.1z"/>
		</g>
	</g>
	<g>
		<path class="st4" d="M26,33.7L7.5,23l-6.8-3.9C0.2,20.3,0,21.5,0,22.7v25.5c0,3.6,1.9,6.9,5,8.6l22.1,12.7
			c1.2,0.7,2.4,1.1,3.8,1.2V63V42.3C30.9,38.8,29,35.5,26,33.7z"/>
		<g>
			<path class="st5" d="M11,52.2c-2.5-1.4-4-4.1-4-7V25.6c0-0.9,0.2-1.8,0.5-2.6l-6.8-3.9C0.2,20.3,0,21.5,0,22.7v25.5
				c0,3.6,1.9,6.9,5,8.6l22.1,12.7c1.2,0.7,2.4,1.1,3.8,1.2V63c-1-0.1-2-0.5-2.9-1L11,52.2z"/>
			<path class="st4" d="M26,33.7L7.5,23C7.2,23.8,7,24.7,7,25.6v19.6c0,2.9,1.5,5.6,4,7L28,62c0.9,0.5,1.9,0.8,2.9,1V42.3
				C30.9,38.8,29,35.5,26,33.7z"/>
		</g>
	</g>
</g>
</svg>
